HIERARCHY
ROOT Bip001_Pelvis
{
  OFFSET 33.2923 95.8902 -28.781
  CHANNELS 6 Xposition Yposition Zposition Zrotation Xrotation Yrotation
  JOINT Bip001_Spine
  {
    OFFSET 1.4188e-005 10.2191 -0.0116013
    CHANNELS 3 Zrotation Xrotation Yrotation
    JOINT Bip001_L_Thigh
    {
      OFFSET 11.0458 -10.2192 0.0116197
      CHANNELS 3 Zrotation Xrotation Yrotation
      JOINT Bip001_L_Calf
      {
        OFFSET -0.707118 -44.0221 0.360014
        CHANNELS 3 Zrotation Xrotation Yrotation
        JOINT Bip001_L_Foot
        {
          OFFSET -0.651902 -40.5938 -3.56146
          CHANNELS 3 Zrotation Xrotation Yrotation
          JOINT Bip001_L_Toe0
          {
            OFFSET 0.0530839 -10.2181 13.1504
            CHANNELS 3 Zrotation Xrotation Yrotation
            End Site
            {
              OFFSET -1.02532e-005 0 7.55606
            }
          }
        }
      }
    }
    JOINT Bip001_R_Thigh
    {
      OFFSET -11.0458 -10.2191 0.0115893
      CHANNELS 3 Zrotation Xrotation Yrotation
      JOINT Bip001_R_Calf
      {
        OFFSET 0.706994 -44.0221 0.35984
        CHANNELS 3 Zrotation Xrotation Yrotation
        JOINT Bip001_R_Foot
        {
          OFFSET 0.651786 -40.5938 -3.5613
          CHANNELS 3 Zrotation Xrotation Yrotation
          JOINT Bip001_R_Toe0
          {
            OFFSET -0.0531479 -10.2181 13.1504
            CHANNELS 3 Zrotation Xrotation Yrotation
            End Site
            {
              OFFSET -1.02894e-005 0 7.55606
            }
          }
        }
      }
    }
    JOINT Bip001_Spine1
    {
      OFFSET 1.87041e-005 14.5736 1.08638
      CHANNELS 3 Zrotation Xrotation Yrotation
      JOINT Bip001_Spine2
      {
        OFFSET 2.24614e-005 14.5058 -1.69078
        CHANNELS 3 Zrotation Xrotation Yrotation
        JOINT Bip001_Neck
        {
          OFFSET 2.20278e-005 15.3945 -0.489414
          CHANNELS 3 Zrotation Xrotation Yrotation
          JOINT Bip001_L_Clavicle
          {
            OFFSET 6.06036 -0.000579998 0.00836775
            CHANNELS 3 Zrotation Xrotation Yrotation
            JOINT Bip001_L_UpperArm
            {
              OFFSET 11.5509 -0.0600302 0.00193952
              CHANNELS 3 Zrotation Xrotation Yrotation
              JOINT Bip001_L_Forearm
              {
                OFFSET 25.9523 0.0806089 -2.15551
                CHANNELS 3 Zrotation Xrotation Yrotation
                JOINT Bip001_L_Hand
                {
                  OFFSET 32.2476 0.153767 1.63968
                  CHANNELS 3 Zrotation Xrotation Yrotation
                  JOINT Bip001_L_Finger0
                  {
                    OFFSET 6.04639 -2.20976 5.90322
                    CHANNELS 3 Zrotation Xrotation Yrotation
                    End Site
                    {
                      OFFSET 4.22376 -1.43895 0.606486
                    }
                  }
                  JOINT Bip001_L_Finger1
                  {
                    OFFSET 11.0826 -0.704819 -0.198153
                    CHANNELS 3 Zrotation Xrotation Yrotation
                    End Site
                    {
                      OFFSET 6.20028 -0.397518 -0.0787166
                    }
                  }
                }
              }
            }
          }
          JOINT Bip001_R_Clavicle
          {
            OFFSET -6.06036 -0.000563197 0.00835105
            CHANNELS 3 Zrotation Xrotation Yrotation
            JOINT Bip001_R_UpperArm
            {
              OFFSET -11.5509 -0.0599978 0.00190698
              CHANNELS 3 Zrotation Xrotation Yrotation
              JOINT Bip001_R_Forearm
              {
                OFFSET -25.9523 0.080682 -2.1559
                CHANNELS 3 Zrotation Xrotation Yrotation
                JOINT Bip001_R_Hand
                {
                  OFFSET -32.2476 0.153858 1.63991
                  CHANNELS 3 Zrotation Xrotation Yrotation
                  JOINT Bip001_R_Finger0
                  {
                    OFFSET -6.04641 -2.20974 5.90321
                    CHANNELS 3 Zrotation Xrotation Yrotation
                    End Site
                    {
                      OFFSET -4.22376 -1.43894 0.606474
                    }
                  }
                  JOINT Bip001_R_Finger1
                  {
                    OFFSET -11.0826 -0.704789 -0.198184
                    CHANNELS 3 Zrotation Xrotation Yrotation
                    End Site
                    {
                      OFFSET -6.20028 -0.397501 -0.0787338
                    }
                  }
                }
              }
            }
          }
          JOINT Bip001_Head
          {
            OFFSET 1.09673e-005 11.2744 2.05948
            CHANNELS 3 Zrotation Xrotation Yrotation
            End Site
            {
              OFFSET 2.89576e-005 20.8808 -2.77728e-005
            }
          }
        }
      }
    }
  }
}
MOTION
Frames:	14
Frame Time:	0.04
31.855 95.883 -29.3526 -0.0950564 -0.90344 3.91402 -0.193014 3.08511 0.199776 6.22567 -5.12398 7.11335 -0.568736 8.42346 -14.9042 5.18224 -1.34897 -0.194971 -2.89707 -4.90609 4.82786 -1.90722 -3.50997 -3.66545 -0.200287 10.1056 -0.0695583 -5.6172 -9.46518 1.99593 1.94408 -6.94516 2.42474 -0.39759 6.16952 0.410879 -0.397244 6.16953 0.410853 -1.38093 -3.0306 -3.885 -21.8033 4.45286 -2.27114 -46.4319 37.7044 -4.79586 11.043 0.0509644 -27.3426 8.4954 0.834847 -2.30725 -3.18055e-015 -9.54166e-015 3.18055e-015 3.53113e-031 -6.36111e-015 3.18055e-015 27.7813 11.1684 18.5871 41.2939 -7.67586 12.8969 -50.6363 3.50951 92.4004 -71.6853 -1.838 1.11389 -3.18055e-015 -6.36111e-015 1.59028e-015 6.36111e-015 -6.36111e-015 -0 2.14227 17.2876 -4.80487 
31.7809 95.8736 -29.3513 -0.0978916 -0.905927 4.30235 -0.180303 3.10934 0.289809 6.3293 -5.31048 7.00462 -0.666627 8.57929 -15.2462 5.14856 -1.42393 -0.191212 -2.92468 -4.87326 4.84381 -1.81371 -3.49779 -4.2461 -0.350893 10.1538 -0.0689926 -5.60438 -9.52565 2.07285 1.95997 -7.00574 2.45627 -0.377077 6.21772 0.590728 -0.37752 6.21773 0.590764 -1.5162 -3.12202 -4.09871 -21.6126 4.41733 -1.86977 -46.0675 37.0815 -5.3988 10.4022 -0.0606214 -27.6801 8.3996 0.926396 -2.18784 -1.05934e-030 -9.54166e-015 -6.36111e-015 -7.06225e-031 -6.36111e-015 -6.36111e-015 26.6086 11.6611 20.6308 42.2344 -8.45577 16.3318 -51.2474 4.47336 89.7412 -73.9581 -2.60137 0.702671 -3.18055e-015 3.18055e-015 3.18055e-015 -3.18055e-015 0 3.18055e-015 2.50161 16.9542 -5.1727 
31.6949 95.8684 -29.341 -0.110533 -0.927928 4.71635 -0.164778 3.12821 0.368752 6.4406 -5.47839 7.04962 -0.73008 8.72695 -15.7371 5.16993 -1.37834 -0.193701 -2.90248 -4.88748 4.77882 -1.6887 -3.43886 -4.83122 -0.524447 10.1581 -0.0740149 -5.5671 -9.55272 2.16566 1.97069 -7.0349 2.45633 -0.350605 6.26215 0.748233 -0.350604 6.26214 0.74823 -1.36587 -2.85649 -4.34859 -21.6215 4.02956 -1.61315 -46.9232 37.867 -5.12408 11.6031 -1.02619 -27.5028 8.24994 0.946936 -2.36692 -3.18055e-015 3.18055e-015 -0 -3.18055e-015 3.18056e-015 3.18055e-015 24.7264 11.4702 22.3306 41.6617 -5.95956 19.5845 -50.9619 3.80277 83.2043 -73.2014 -4.57115 0.651568 -3.18055e-015 3.18055e-015 6.36111e-015 -3.18055e-015 3.18056e-015 7.95139e-015 2.36463 16.2607 -5.31599 
31.6125 95.8714 -29.3188 -0.104923 -0.887116 5.16608 -0.1463 3.12154 0.415276 6.50463 -5.52809 6.50459 -0.910753 8.55414 -15.6969 5.35044 -1.10603 -0.214591 -2.86271 -5.01409 4.76532 -1.58376 -3.35072 -5.34395 -0.681265 10.0659 -0.0541483 -5.58367 -9.56317 2.1473 1.97901 -7.0639 2.47418 -0.315993 6.24179 0.84042 -0.315994 6.24178 0.840427 -1.62882 -2.39574 -4.45459 -21.449 3.51722 -1.43474 -46.5429 37.9383 -5.3041 11.5894 -0.59194 -27.6154 8.03606 0.859716 -2.4263 3.18055e-015 0 -9.54166e-015 3.18055e-015 -3.18056e-015 -6.36111e-015 23.7282 11.0153 23.4978 45.7339 -8.63238 23.331 -51.5072 6.15702 78.1969 -68.8815 -4.48777 2.7163 -3.53112e-031 -6.36111e-015 -3.18055e-015 -3.53113e-031 -6.36111e-015 -3.18055e-015 2.73564 15.6714 -5.62653 
31.4742 95.8643 -29.3146 -0.269992 -0.860787 5.66413 -0.133709 3.12013 0.430736 6.84602 -5.82698 6.23084 -1.08618 8.86023 -15.845 5.35091 -1.2108 -0.215898 -2.85823 -4.95598 4.76619 -1.23365 -3.2315 -5.83684 -0.874172 9.84962 8.60796e-005 -5.6213 -9.47106 2.09405 1.98258 -7.09235 2.47467 -0.291523 6.23914 0.870024 -0.291602 6.23914 0.870684 -1.42106 -2.01146 -4.65133 -21.5336 2.98771 -1.13965 -46.0607 37.9952 -5.57071 11.4451 0.0646549 -27.557 8.05396 0.84751 -2.25166 0 6.36111e-015 -0 -3.18055e-015 0 -0 23.5115 10.6416 23.5102 51.3343 -16.1085 23.1344 -47.474 7.52798 81.8733 -65.8031 -6.73812 2.3415 3.18055e-015 -3.18055e-015 -1.59028e-015 8.82782e-032 3.18056e-015 -1.59028e-015 2.62037 15.1018 -5.69766 
31.4238 95.8665 -29.3337 -0.297049 -0.854595 5.97434 -0.166775 3.08206 0.349549 7.01539 -5.93796 5.85007 -1.21494 8.99345 -15.6015 4.93312 -1.46758 -0.180292 -2.9952 -4.69159 4.86305 -1.107 -3.15842 -6.14006 -0.943753 9.80883 -0.0218387 -5.61212 -9.45881 2.18478 1.98676 -7.11215 2.49259 -0.35784 6.163 0.710245 -0.355429 6.16303 0.70981 -0.850789 -1.13602 -4.7096 -21.7951 2.14824 -1.54254 -46.9719 37.3442 -4.34907 11.9201 0.454079 -27.2585 8.11448 0.839234 -2.56153 -3.18055e-015 -3.18055e-015 -6.36111e-015 -3.18055e-015 -3.18056e-015 -3.18055e-015 23.4447 9.45223 22.1475 47.6085 -12.3945 21.195 -45.5843 1.07473 79.5216 -59.6374 -5.79894 2.40908 6.36111e-015 0 -1.59028e-015 -3.18055e-015 -3.18056e-015 1.59028e-015 1.6953 14.4494 -5.29207 
31.5221 95.8857 -29.37 -0.0733544 -0.843363 5.66907 -0.167073 3.07101 0.231223 6.66968 -5.71021 6.28639 -1.03855 8.70752 -15.645 4.55453 -1.5612 -0.159561 -3.14828 -4.48347 5.03015 -1.48723 -3.34184 -5.75092 -0.762373 10.1112 0.170789 -5.67616 -9.52811 1.96553 1.98209 -7.0912 2.49785 -0.347961 6.14132 0.472527 -0.348694 6.14133 0.472474 -1.67594 -1.16765 -4.1443 -21.192 2.3909 -1.83161 -47.4216 36.8893 -3.52674 11.8348 0.976967 -26.8228 8.02827 0.94101 -2.5799 0 6.36111e-015 -0 3.18055e-015 6.36111e-015 -0 23.913 9.05086 21.2631 42.0924 -7.56507 21.6616 -45.2306 -0.853427 72.4766 -59.7291 -7.09719 4.48092 3.18055e-015 -3.18055e-015 -0 3.18055e-015 -3.18056e-015 -1.59028e-015 1.94912 14.6832 -5.08694 
31.6805 95.8961 -29.3407 0.161923 -0.987859 4.96798 -0.157098 3.13001 0.177659 6.17422 -5.18401 6.80797 -0.764312 8.19264 -15.5386 4.72712 -1.26503 -0.181303 -3.06585 -4.65712 4.95844 -1.93329 -3.49053 -5.05869 -0.595094 10.4842 -0.0468708 -5.53277 -9.67118 2.23628 1.94207 -6.95725 2.4473 -0.324662 6.25953 0.364758 -0.324661 6.25952 0.364755 -3.14845 -1.90108 -3.38838 -20.102 3.29475 -1.74204 -47.296 38.2321 -3.27301 12.0122 0.900442 -26.2975 7.12919 1.11978 -2.23102 6.36111e-015 0 3.18055e-015 3.18055e-015 -3.18056e-015 4.77083e-015 25.3012 9.87451 21.6956 40.5123 -9.14219 20.6249 -45.4378 -0.607531 73.333 -58.002 -4.83834 4.32386 -9.54166e-015 3.18055e-015 -0 -6.36111e-015 6.36111e-015 -1.59028e-015 2.96978 15.2461 -5.10733 
31.8188 95.9267 -29.3197 0.365981 -1.06595 4.32878 -0.186501 3.12005 0.223722 5.76176 -4.74535 7.29998 -0.420399 7.78836 -15.385 4.02377 -1.45518 -0.146225 -3.25805 -4.38825 5.09674 -2.32991 -3.55759 -4.47009 -0.339058 10.6805 0.0319056 -5.48137 -9.6678 2.17684 1.91734 -6.87369 2.41344 -0.386071 6.23929 0.458654 -0.386071 6.23932 0.458656 -3.44885 -1.71742 -3.11075 -19.9407 3.22955 -2.03096 -47.1939 40.2806 -2.90383 12.211 0.639156 -25.388 7.14778 1.4955 -1.8128 -3.18055e-015 -9.54166e-015 1.59028e-015 -0 -3.18056e-015 -0 26.2414 9.88144 21.9656 39.4471 -11.2062 19.8688 -44.9493 -0.231665 74.6019 -54.1051 -1.80811 3.82647 -3.18055e-015 1.59028e-015 3.18055e-015 -3.18055e-015 0 4.77083e-015 3.18691 15.113 -5.0048 
31.8952 95.9429 -29.321 0.420495 -1.05314 3.88582 -0.20603 3.08004 0.350071 5.59109 -4.5571 7.03466 -0.311785 7.62005 -14.7876 3.75187 -1.57807 -0.131144 -3.35825 -4.19615 5.19834 -2.53137 -3.54961 -4.04624 -0.09704 10.6138 0.111148 -5.50385 -9.61963 2.03244 1.89003 -6.76884 2.36447 -0.429599 6.15871 0.71293 -0.429428 6.15867 0.712806 -2.6223 -1.47108 -3.53553 -20.5744 2.99394 -2.39208 -47.4221 40.8671 -2.68723 12.5014 0.985248 -24.307 6.68961 1.337 -1.77207 -1.59028e-015 1.27222e-014 -0 -1.59028e-015 1.27222e-014 1.59028e-015 26.5491 9.66045 20.8747 37.2723 -9.51064 20.1041 -42.8939 -1.34234 72.5263 -51.523 0.252262 4.12437 -1.27222e-014 -1.59028e-015 5.56597e-015 -1.27222e-014 0 4.77083e-015 2.50866 15.0072 -4.95505 
31.9614 95.9389 -29.321 0.561539 -1.06037 3.51063 -0.211619 3.08983 0.387896 5.34583 -4.30802 6.92342 -0.26006 7.26521 -14.3989 3.88032 -1.39283 -0.135943 -3.29288 -4.27429 5.20232 -2.80451 -3.69676 -3.68319 0.0983224 10.8341 0.122847 -5.52082 -9.74211 1.97843 1.87012 -6.70522 2.33848 -0.451612 6.1781 0.788815 -0.452379 6.17812 0.789118 -2.24616 -1.78274 -3.75883 -20.9604 3.32805 -2.57211 -47.664 39.4795 -2.63607 12.5303 2.1231 -23.9215 6.89337 1.24888 -1.92362 -7.95139e-015 0 4.77083e-015 -4.77083e-015 -3.18056e-015 1.59028e-015 26.5963 9.75244 19.7621 37.2628 -8.27177 20.1556 -43.5125 -0.523202 72.2435 -48.6057 2.35088 4.33522 1.27222e-014 0 -7.95139e-016 1.27222e-014 0 -1.59028e-015 2.34373 15.3599 -4.99966 
31.9726 95.9374 -29.327 0.616763 -1.07111 3.14957 -0.208724 3.09225 0.336369 5.20187 -4.14404 7.11372 -0.121219 7.09083 -14.2449 3.73378 -1.3647 -0.139153 -3.31344 -4.2895 5.18344 -2.91701 -3.85138 -3.16477 0.218652 11.0366 0.0743372 -5.52373 -9.77602 1.91162 1.85429 -6.64672 2.29982 -0.441024 6.17254 0.685915 -0.442735 6.17256 0.685872 -2.34618 -1.91141 -3.58222 -21.0476 3.50264 -2.63031 -47.7026 37.9578 -2.51306 12.1069 2.50007 -24.0245 7.26121 1.25759 -2.07587 3.18055e-015 0 3.18055e-015 3.18055e-015 0 4.77083e-015 27.3003 9.82917 19.1676 35.6028 -5.89272 18.685 -42.971 -0.294081 71.4186 -48.6159 2.12354 3.39391 -3.18055e-015 2.38542e-015 4.77083e-015 -3.18055e-015 2.38542e-015 3.97569e-015 2.63666 15.807 -4.96507 
31.9655 95.9407 -29.3599 0.56015 -1.09472 2.95208 -0.203064 3.09374 0.238948 5.23738 -4.15838 6.81962 -0.140909 7.18371 -13.6964 3.8553 -1.31335 -0.144897 -3.31145 -4.33406 5.1516 -2.87524 -3.86906 -2.80054 0.271532 10.9815 0.14105 -5.54442 -9.70566 1.81715 1.84334 -6.57786 2.24812 -0.420224 6.18656 0.490018 -0.422374 6.18658 0.490021 -2.24377 -2.02577 -3.40586 -21.262 3.58475 -2.46673 -47.4138 38.2542 -2.60647 11.8164 1.76749 -24.2803 7.28581 1.17888 -2.01087 3.18055e-015 -1.27222e-014 4.77083e-015 3.18055e-015 -1.27222e-014 4.77083e-015 27.9711 9.96741 18.7672 33.7674 -2.55792 17.5015 -42.2957 -0.095912 68.3097 -48.0057 2.13948 4.20289 -3.18055e-015 3.97569e-015 7.95139e-016 -6.36111e-015 3.97569e-015 7.95139e-016 2.91875 16.4182 -4.87619 
31.9822 95.9227 -29.3854 0.568691 -1.10872 2.81213 -0.194429 3.1073 0.214603 5.1591 -4.1873 6.7148 -0.0768259 7.262 -13.512 3.99749 -1.25454 -0.1526 -3.2634 -4.45028 5.14562 -2.94482 -3.95475 -2.55355 0.371647 11.0822 -0.00136107 -5.55541 -9.78994 1.84864 1.84026 -6.57198 2.25205 -0.40476 6.21381 0.441229 -0.402649 6.21382 0.441095 -1.72628 -1.96887 -3.59398 -21.7041 3.50952 -2.59336 -47.1855 39.5222 -2.7583 11.7338 0.450726 -24.6264 7.38443 1.38545 -1.78934 3.18055e-015 0 1.59028e-015 6.36111e-015 0 1.59028e-015 28.186 9.87686 18.1021 32.5368 1.41968 16.4159 -42.9365 0.984889 65.0438 -45.3962 1.86097 5.06423 -7.72433e-031 -7.95139e-015 -5.56597e-015 -5.51738e-031 -7.95139e-015 -3.97569e-015 2.84394 16.7615 -4.88713 
